<svg width="16" height="16" viewBox="0 0 16 16" version="1.1" xmlns="http://www.w3.org/2000/svg"><path d="m 7.9992535,0.1974605 c -4.417079,0 -7.999264,3.581694 -7.999264,8.000245 0,3.5345465 2.292029,6.5327975 5.471009,7.5906565 0.400258,0.07367 0.546119,-0.173363 0.546119,-0.385524 0,-0.190061 -0.0069,-0.692962 -0.0108,-1.360386 -2.225238,0.483256 -2.694743,-1.072592 -2.694743,-1.072592 -0.363915,-0.924277 -0.888425,-1.170325 -0.888425,-1.170325 -0.726357,-0.496025 0.055,-0.486203 0.055,-0.486203 0.802971,0.05648 1.225329,0.82458 1.225329,0.82458 0.713589,1.222383 1.872618,0.869272 2.328371,0.664478 0.07268,-0.516652 0.279444,-0.869272 0.507812,-1.069155 -1.776359,-0.201848 -3.644065,-0.888425 -3.644065,-3.9539585 0,-0.8732 0.311857,-1.587771 0.823598,-2.146658 -0.08251,-0.202339 -0.35704,-1.016115 0.07858,-2.117192 0,0 0.671353,-0.215108 2.199699,0.82016 0.637957,-0.177783 1.32257,-0.266184 2.002763,-0.269622 0.679702,0.0034 1.363823,0.09184 2.0027625,0.269622 1.527365,-1.035268 2.197735,-0.82016 2.197735,-0.82016 0.436601,1.101077 0.162068,1.914853 0.08005,2.117192 0.512723,0.558887 0.822125,1.273458 0.822125,2.146658 0,3.0733905 -1.870654,3.7496545 -3.6524155,3.9475735 0.286811,0.24703 0.542681,0.735198 0.542681,1.4812 0,1.069646 -0.0098,1.932533 -0.0098,2.194788 0,0.214126 0.1443875,0.46312 0.5500475,0.385033 3.176525,-1.060315 5.466589,-4.056601 5.466589,-7.5901655 0,-4.418551 -3.582185,-8.000245 -8.0007375,-8.000245" /></svg>
